<?xml version="1.0" encoding="utf-8"?>
<!-- Generator: Adobe Illustrator 15.0.2, SVG Export Plug-In . SVG Version: 6.00 Build 0)  -->
<!DOCTYPE svg PUBLIC "-//W3C//DTD SVG 1.0//EN" "http://www.w3.org/TR/2001/REC-SVG-20010904/DTD/svg10.dtd">
<svg version="1.0" id="Design" xmlns="http://www.w3.org/2000/svg" xmlns:xlink="http://www.w3.org/1999/xlink" x="0px" y="0px"
	 width="157.25px" height="65px" viewBox="0 0 157.25 65" enable-background="new 0 0 157.25 65" xml:space="preserve">
<g>
	<path d="M9.018,40.971H3.144v21.951H1V1h2.144v37.828h5.041l19.529-18.854h2.501l0.079,0.238l-19.688,19.33l21.196,23.183
		l-0.079,0.197h-2.5L9.018,40.971z"/>
	<path d="M52.881,63.755c-5.055,0-9.322-1.959-12.801-5.874c-3.48-3.917-5.219-8.853-5.219-14.807v-2.541
		c0-6.218,1.727-11.332,5.18-15.341c3.453-4.009,7.8-6.013,13.039-6.013c4.763,0,8.561,1.568,11.392,4.704
		c2.831,3.136,4.248,7.417,4.248,12.841v3.294H37.003v0.516v2.541c0,5.24,1.482,9.639,4.446,13.198
		c2.963,3.56,6.774,5.339,11.432,5.339c2.566,0,5.034-0.476,7.403-1.43c2.368-0.952,4.293-2.222,5.775-3.81l1.151,1.667
		c-1.508,1.667-3.453,3.036-5.835,4.108C58.994,63.219,56.162,63.755,52.881,63.755z M53.079,21.323
		c-4.446,0-8.091,1.542-10.935,4.625c-2.845,3.083-4.453,6.979-4.823,11.689l0.119,0.238h29.135v-1.31
		c0-4.419-1.204-8.063-3.612-10.936C60.555,22.759,57.26,21.323,53.079,21.323z"/>
	<path d="M76.583,25.253h-3.414v-5.16h3.414V25.253z M76.583,62.921h-3.414v-5.16h3.414V62.921z"/>
	<path d="M91.469,8.383v11.591h10.559v2.183H91.469v29.69c0,3.52,0.596,6.028,1.787,7.522c1.191,1.495,2.765,2.243,4.723,2.243
		c0.714,0,1.35-0.026,1.906-0.08c0.555-0.052,1.322-0.145,2.301-0.277l0.398,1.945c-0.663,0.212-1.35,0.356-2.065,0.437
		c-0.714,0.079-1.522,0.119-2.421,0.119c-2.884,0-5.074-0.939-6.569-2.818s-2.243-4.909-2.243-9.09v-29.69h-7.938v-2.183h7.938
		V8.383H91.469z"/>
	<path d="M139.102,54.983c-1.482,2.592-3.691,4.704-6.629,6.331c-2.938,1.628-6.498,2.441-10.678,2.441
		c-3.995,0-7.132-1.092-9.407-3.274c-2.276-2.185-3.414-5.127-3.414-8.832c0-3.599,1.7-6.616,5.101-9.05
		c3.4-2.434,7.654-3.653,12.762-3.653h12.265v-6.271c0-3.572-1.146-6.357-3.434-8.355c-2.289-1.998-5.511-2.997-9.666-2.997
		c-3.889,0-7.02,0.94-9.387,2.818c-2.37,1.879-3.553,4.301-3.553,7.264l-1.787-0.079l-0.079-0.198
		c-0.159-3.334,1.138-6.159,3.89-8.475c2.751-2.315,6.391-3.473,10.915-3.473c4.605,0,8.297,1.165,11.074,3.493
		c2.779,2.329,4.168,5.69,4.168,10.083v21.514c0,1.509,0.086,2.977,0.258,4.407c0.172,1.428,0.457,2.844,0.854,4.246h-2.381
		c-0.344-1.878-0.576-3.288-0.695-4.227c-0.119-0.939-0.178-1.952-0.178-3.037V54.983z M121.794,61.652
		c4.261,0,7.866-0.939,10.817-2.818c2.951-1.88,5.113-4.565,6.49-8.058v-9.646h-12.147c-4.445,0-8.197,1.027-11.253,3.077
		c-3.056,2.051-4.584,4.584-4.584,7.601c0,2.884,0.972,5.247,2.917,7.085S118.566,61.652,121.794,61.652z"/>
	<path d="M156.092,6.478h-2.145V1h2.145V6.478z M156.092,62.921h-2.145V19.974h2.145V62.921z"/>
</g>
</svg>
